Coordinates
version=1
nRows=11
nColumns=63
inDegrees=yes

Units are S.I. units (second, meters, Newtons, ...)
If the header above contains a line with 'inDegrees', this indicates whether rotational values are in degrees (yes) or radians (no).

endheader
time	pelvis_tilt	pelvis_list	pelvis_rotation	pelvis_tx	pelvis_ty	pelvis_tz	hip_flexion_r	hip_adduction_r	hip_rotation_r	knee_angle_r	knee_angle_r_beta	ankle_angle_r	subtalar_angle_r	mtp_angle_r	hip_flexion_l	hip_adduction_l	hip_rotation_l	knee_angle_l	knee_angle_l_beta	ankle_angle_l	subtalar_angle_l	mtp_angle_l	L5_S1_Flex_Ext	L5_S1_Lat_Bending	L5_S1_axial_rotation	L4_L5_Flex_Ext	L4_L5_Lat_Bending	L4_L5_axial_rotation	L3_L4_Flex_Ext	L3_L4_Lat_Bending	L3_L4_axial_rotation	L2_L3_Flex_Ext	L2_L3_Lat_Bending	L2_L3_axial_rotation	L1_L2_Flex_Ext	L1_L2_Lat_Bending	L1_L2_axial_rotation	L1_T12_Flex_Ext	L1_T12_Lat_Bending	L1_T12_axial_rotation	Abs_r3	Abs_r2	Abs_r1	Abs_t1	Abs_t2	neck_flexion	neck_bending	neck_rotation	arm_flex_r	arm_add_r	arm_rot_r	elbow_flex_r	pro_sup_r	wrist_flex_r	wrist_dev_r	arm_flex_l	arm_add_l	arm_rot_l	elbow_flex_l	pro_sup_l	wrist_flex_l	wrist_dev_l
1.666667	3.430005	-1.001840	108.788509	0.259544	0.912841	0.463203	-5.112598	5.991725	-11.969576	14.462414	0.252417	36.414318	-8.518609	0.000000	0.524230	-5.342396	10.965570	19.033169	0.332191	43.886605	4.439097	0.000000	-0.115277	0.353621	-1.530612	-0.214081	0.470315	-1.626275	-0.189388	0.859793	-1.626275	-0.131750	0.859793	-1.339285	-0.107046	0.721103	-1.243622	-0.065869	0.547758	-1.147959	-0.823411	4.000227	-8.512802	0.000000	0.000000	16.952856	-5.029650	-1.852499	10.919799	-10.003913	-1.866832	105.107033	50.689424	0.683797	22.748672	12.967024	-12.796167	5.352637	97.508771	80.434234	-9.984193	2.725281
1.683333	3.402196	-0.947991	108.670240	0.259522	0.912341	0.463163	-5.183534	5.988181	-11.855520	14.506885	0.253193	36.443833	-8.647915	0.000000	0.475648	-5.380370	10.427915	19.069456	0.332825	44.104465	4.900364	0.000000	-0.126709	0.370990	-1.458413	-0.235312	0.493417	-1.549564	-0.208171	0.902026	-1.549564	-0.144816	0.902026	-1.276111	-0.117662	0.756523	-1.184960	-0.072402	0.574664	-1.093810	-0.905072	4.196717	-8.111254	0.000000	0.000000	17.120442	-5.098199	-2.533600	10.346929	-10.647823	-2.082850	104.650932	48.245802	0.137578	25.221492	13.057074	-12.393710	5.108638	95.532505	80.805865	-10.415262	4.849771
1.700000	3.385265	-0.903215	108.532513	0.259525	0.911912	0.463277	-5.245835	6.000250	-11.638679	14.516452	0.253360	36.434160	-8.843188	0.000000	0.447057	-5.406107	9.995480	19.121867	0.333740	44.310940	5.198598	0.000000	-0.136034	0.389691	-1.401789	-0.252629	0.518289	-1.489401	-0.223490	0.947495	-1.489401	-0.155473	0.947495	-1.226565	-0.126321	0.794658	-1.138954	-0.077730	0.603632	-1.051342	-0.971678	4.408265	-7.796330	0.000000	0.000000	17.237455	-5.180469	-3.040576	10.128528	-11.290321	-2.242513	103.914064	46.649757	-0.706117	26.776683	13.221542	-12.049713	4.875822	93.375017	81.269550	-10.780054	6.348915
1.716667	3.385086	-0.864609	108.408406	0.259561	0.911579	0.463587	-5.298538	6.034092	-11.404360	14.489773	0.252894	36.373606	-9.049665	0.000000	0.452082	-5.429617	9.694816	19.205504	0.335199	44.501205	5.345591	0.000000	-0.144602	0.410777	-1.364935	-0.268540	0.546334	-1.450243	-0.237566	0.998764	-1.450243	-0.165266	0.998764	-1.194318	-0.134277	0.837657	-1.109009	-0.082626	0.636294	-1.023701	-1.032877	4.646796	-7.591357	0.000000	0.000000	17.344697	-5.302838	-3.334029	10.208186	-11.918018	-2.453919	103.015192	46.215395	-1.447450	27.420676	13.369183	-11.828891	4.615866	91.180165	81.675930	-10.832084	7.127300
1.733333	3.373998	-0.833702	108.261661	0.259693	0.911374	0.464041	-5.345608	6.058019	-11.109448	14.438570	0.252001	36.282168	-9.284789	0.000000	0.458727	-5.426038	9.499418	19.287564	0.336631	44.635397	5.338032	0.000000	-0.152572	0.430436	-1.345652	-0.283342	0.572480	-1.429755	-0.250661	1.046562	-1.429755	-0.174375	1.046562	-1.177445	-0.141679	0.877745	-1.093342	-0.087180	0.666745	-1.009239	-1.089808	4.869178	-7.484111	0.000000	0.000000	17.440801	-5.496626	-3.440801	10.546211	-12.514571	-2.719368	102.060633	47.055296	-2.042769	27.207461	13.348106	-11.809163	4.252958	89.165514	82.091950	-10.752609	7.172399
1.750000	3.363995	-0.810680	108.101295	0.259911	0.911301	0.464642	-5.379759	6.082689	-10.746134	14.365529	0.250726	36.150680	-9.567971	0.000000	0.477344	-5.411826	9.390761	19.380217	0.338249	44.710977	5.211201	0.000000	-0.159787	0.449936	-1.344742	-0.296741	0.598414	-1.428788	-0.262515	1.093973	-1.428788	-0.182621	1.093973	-1.176649	-0.148379	0.917509	-1.092603	-0.091303	0.696950	-1.008556	-1.141345	5.089762	-7.479052	0.000000	0.000000	17.541955	-5.781526	-3.367280	11.061277	-13.118431	-3.059989	101.228039	49.187125	-2.539901	26.325456	13.089068	-12.023340	3.713534	87.508734	82.518755	-10.613471	6.560792
1.766667	3.346553	-0.793754	107.913254	0.260251	0.911367	0.465351	-5.404879	6.097127	-10.301407	14.270705	0.249071	35.990222	-9.904109	0.000000	0.492601	-5.393077	9.286725	19.465015	0.339729	44.728447	5.066071	0.000000	-0.166027	0.466089	-1.351048	-0.308328	0.619898	-1.435489	-0.272765	1.133248	-1.435489	-0.189752	1.133248	-1.182167	-0.154172	0.950448	-1.097727	-0.094868	0.721971	-1.013286	-1.185912	5.272487	-7.514126	0.000000	0.000000	17.645270	-6.089403	-3.159366	11.639466	-13.788667	-3.578715	100.635206	51.988385	-2.723147	25.045570	12.643651	-12.500181	3.013234	86.351372	83.053308	-10.535378	5.567706
1.783333	3.348850	-0.784640	107.714068	0.260568	0.911565	0.466155	-5.405280	6.116657	-9.806777	14.175307	0.247406	35.799900	-10.277536	0.000000	0.521676	-5.383310	9.225417	19.564113	0.341458	44.670922	4.829762	0.000000	-0.169230	0.483504	-1.373301	-0.314278	0.643061	-1.459132	-0.278028	1.175593	-1.459132	-0.193413	1.175593	-1.201638	-0.157147	0.985962	-1.115807	-0.096698	0.748948	-1.029976	-1.208795	5.469498	-7.637888	0.000000	0.000000	17.748239	-6.494658	-2.821519	12.285153	-14.628825	-4.207587	100.381327	55.475335	-2.847855	23.506835	11.997157	-13.227886	2.058845	85.776915	83.589767	-10.430944	4.361469
1.800000	3.356700	-0.773037	107.499591	0.260910	0.911907	0.467023	-5.405169	6.131648	-9.296412	14.063992	0.245463	35.584536	-10.662181	0.000000	0.543768	-5.386181	9.152078	19.664976	0.343219	44.539405	4.594456	0.000000	-0.171980	0.498543	-1.406247	-0.319384	0.663062	-1.494138	-0.282546	1.212157	-1.494138	-0.196556	1.212157	-1.230466	-0.159701	1.016628	-1.142576	-0.098269	0.772243	-1.054686	-1.228437	5.639615	-7.821126	0.000000	0.000000	17.862445	-6.828754	-2.302317	12.938420	-15.663802	-5.041132	100.493725	58.855604	-2.545121	22.023860	11.266249	-14.206568	0.817311	85.842461	84.230992	-10.160264	3.399313
1.816667	3.366237	-0.755581	107.232295	0.261258	0.912401	0.467899	-5.412849	6.129690	-8.753221	13.944437	0.243376	35.340527	-11.033904	0.000000	0.538785	-5.390423	9.044819	19.754525	0.344781	44.321578	4.304335	0.000000	-0.174113	0.509775	-1.426419	-0.323345	0.678001	-1.515570	-0.286050	1.239468	-1.515570	-0.198994	1.239468	-1.248117	-0.161681	1.039534	-1.158966	-0.099488	0.789642	-1.069814	-1.243672	5.766679	-7.933316	0.000000	0.000000	17.982307	-7.082693	-1.748761	13.472220	-16.917535	-6.246829	101.091339	62.393859	-2.095785	20.722962	10.600264	-15.406184	-0.576244	86.500167	84.855711	-9.692131	2.831773
1.833333	3.374624	-0.737396	106.929613	0.261610	0.913055	0.468755	-5.432916	6.113016	-8.194322	13.806091	0.240962	35.058026	-11.387171	0.000000	0.512524	-5.394984	8.902619	19.837160	0.346224	44.013731	3.980198	0.000000	-0.174615	0.515900	-1.439345	-0.324277	0.686147	-1.529304	-0.286875	1.254360	-1.529304	-0.199567	1.254360	-1.259427	-0.162147	1.052024	-1.169468	-0.099775	0.799129	-1.079509	-1.247256	5.835966	-8.005204	0.000000	0.000000	18.114544	-7.197848	-1.123977	13.865189	-18.356027	-7.790623	102.089671	66.177254	-1.630149	19.284249	10.043731	-16.858997	-2.059867	87.668129	85.463522	-9.138269	2.287496
